<svg width="16" height="15" viewBox="0 0 16 15" fill="none" xmlns="http://www.w3.org/2000/svg">
<path d="M0.72931 4.96703L3.8392 4.96703L3.8392 14.967H0.72931L0.72931 4.96703ZM2.27876 0C3.27876 0 4.08096 0.802198 4.08096 1.8022C4.08096 2.8022 3.27876 3.6044 2.27876 3.6044C1.27876 3.6044 0.476563 2.79121 0.476563 1.8022C0.476563 0.813187 1.27876 0 2.27876 0Z" fill="#7E7E7E"/>
<path d="M5.78467 4.9671L8.76269 4.9671V6.32974H8.80665C9.22423 5.53853 10.2352 4.71436 11.7517 4.71436C14.8946 4.71436 15.477 6.78029 15.477 9.4726L15.477 14.9561H12.3671L12.3671 10.099C12.3671 8.93414 12.3451 7.45062 10.7517 7.45062C9.1583 7.45062 8.88357 8.71436 8.88357 10.022L8.88357 14.9671H5.77368L5.77368 4.9671H5.78467Z" fill="#7E7E7E"/>
</svg>
