<svg width="266" height="24" viewBox="0 0 266 24" fill="none" xmlns="http://www.w3.org/2000/svg">
<path d="M10.5124 21.9814C6.64066 21.9814 4.48424 19.874 3.38152 18.0851C2.40132 16.5413 1.88672 14.6299 1.88672 12.596V0.392578H2.86691V12.596C2.86691 14.4584 3.33251 16.1737 4.19018 17.546C5.61146 19.8249 7.74338 20.9767 10.4879 20.9767C13.2325 20.9767 15.3644 19.8249 16.8102 17.546C17.6924 16.1492 18.158 14.4339 18.158 12.5715V0.392578H19.1381V12.5715C19.1381 14.6299 18.6235 16.5168 17.6434 18.0851C16.5161 19.874 14.3842 21.9814 10.4879 21.9814H10.5124Z" fill="white"/>
<path d="M10.5126 23.8192C6.98389 23.8192 4.21484 22.594 2.22994 20.168C0.808661 18.4037 0 16.0512 0 13.5762V0.392578H1.0047V13.5762C1.0047 15.8306 1.71534 17.9381 3.0141 19.5309C4.77845 21.7118 7.30245 22.8145 10.5126 22.8145C13.7227 22.8145 16.2467 21.7118 18.0356 19.5064C19.3343 17.9136 20.045 15.7816 20.045 13.5272V0.392578H21.0252V13.5272C21.0252 16.0022 20.241 18.3547 18.7952 20.119C16.8103 22.545 14.0168 23.7947 10.4881 23.7947L10.5126 23.8192Z" fill="white"/>
<path d="M57.1208 0.392578H56.1406V23.3046H57.1208V0.392578Z" fill="white"/>
<path d="M58.9597 0.392578H57.9795V23.3046H58.9597V0.392578Z" fill="white"/>
<path d="M48.9607 23.3291V0.392578H47.956V22.1284L28.9893 3.13712V23.3291H29.9695V5.5386L47.76 23.3291H48.9607Z" fill="white"/>
<path d="M46.1662 0.417083V17.9136L28.3511 0.392578H27.1504V23.3291H28.1306V1.59332L47.1464 20.2905V0.417083H46.1662Z" fill="white"/>
<path d="M78.5381 14.7032L86.9678 23.2309L87.6784 22.4958L78.5381 13.3555V14.7032Z" fill="white"/>
<path d="M89.4434 11.8604C89.4434 5.31756 84.1258 0 77.583 0C71.0402 0 65.7227 5.31756 65.7227 11.8604C65.7227 18.4032 71.0402 23.7207 77.583 23.7207C80.1315 23.7207 82.5085 22.8876 84.4444 21.5153L83.7337 20.8046C81.9694 22.0054 79.862 22.7405 77.583 22.7405C71.5793 22.7405 66.7029 17.8641 66.7029 11.8604C66.7029 5.85667 71.6038 0.980195 77.583 0.980195C83.5622 0.980195 88.4632 5.85667 88.4632 11.8604C88.4632 14.3599 87.6055 16.6633 86.1842 18.5012C85.9882 18.7707 85.7676 19.0158 85.5226 19.2608L86.2332 19.9715L88.1446 21.8829L88.8553 21.1722L86.8704 19.2118C88.4632 17.2024 89.4434 14.6539 89.4434 11.8604Z" fill="white"/>
<path d="M80.3505 12.742H79.0027L84.1242 17.8635L84.8349 18.5742C85.0554 18.3291 85.276 18.0841 85.472 17.8145C86.7217 16.1482 87.4814 14.0898 87.4814 11.8598C87.4814 6.41976 83.046 1.98438 77.6059 1.98438C72.1659 1.98438 67.7305 6.41976 67.7305 11.8598C67.7305 17.2999 72.1659 21.7353 77.6059 21.7353C79.6888 21.7353 81.6002 21.0982 83.193 19.9955L82.4824 19.2848C81.0856 20.216 79.3948 20.7551 77.6059 20.7551C72.705 20.7551 68.7107 16.7608 68.7107 11.8598C68.7107 6.95886 72.705 2.96457 77.6059 2.96457C82.5069 2.96457 86.5012 6.95886 86.5012 11.8598C86.5012 13.8202 85.8641 15.6336 84.7614 17.1039L80.3505 12.742Z" fill="white"/>
<path d="M108.189 22.9134H109.733C111.816 22.9134 113.458 22.3498 114.658 21.2226C115.859 20.0954 117.06 18.135 118.261 15.3169C118.432 14.9494 118.579 14.7778 118.775 14.7778C118.824 14.7778 118.873 14.7778 118.922 14.7778C118.971 14.7778 118.996 14.7778 119.02 14.7778L117.158 23.8936C116.104 23.5751 114.021 23.4035 110.909 23.4035H97.2354V23.2075C97.2354 23.036 97.4069 22.9379 97.7745 22.8399C98.142 22.7664 98.5586 22.6684 98.9997 22.5949C99.4653 22.4969 99.8574 22.2028 100.225 21.7127C100.593 21.2226 100.764 20.5365 100.764 19.6298V3.62811C100.764 2.89296 100.593 2.32935 100.225 1.93727C99.8574 1.54519 99.4653 1.30014 99.0242 1.22663C98.5831 1.15311 98.191 1.0551 97.8235 0.981581C97.4559 0.883561 97.2844 0.761037 97.2844 0.614008V0.417969H108.777V0.614008C108.777 0.785542 108.581 0.908066 108.214 0.981581C107.846 1.0796 107.429 1.15311 106.988 1.22663C106.547 1.30014 106.131 1.54519 105.763 1.96178C105.395 2.37836 105.199 2.94197 105.199 3.65261C105.199 5.17192 105.199 7.91646 105.199 11.8863C105.199 15.856 105.199 18.5761 105.199 20.1199C105.199 21.0266 105.444 21.7372 105.91 22.2028C106.376 22.6929 107.16 22.9134 108.214 22.9134H108.189Z" fill="white"/>
<path d="M145.828 13.7468C145.828 20.4612 142.814 23.8184 136.786 23.8184C130.145 23.8184 126.813 20.9513 126.813 15.2416V3.62634C126.813 2.89119 126.641 2.32758 126.273 1.9355C125.93 1.54342 125.514 1.29837 125.097 1.22486C124.681 1.15134 124.264 1.05332 123.921 0.979809C123.578 0.88179 123.382 0.759265 123.382 0.612236V0.416197H134.801V0.612236C134.801 0.78377 134.654 0.88179 134.385 0.979809C134.09 1.05332 133.772 1.12684 133.404 1.17585C133.037 1.22486 132.669 1.39639 132.326 1.66595C131.983 1.9355 131.738 2.32758 131.615 2.79317C131.346 3.50381 131.199 4.31247 131.199 5.26816V15.4867C131.199 17.9862 131.689 19.8731 132.645 21.1718C133.6 22.4706 135.365 23.1077 137.913 23.1077C140.143 23.1077 141.932 22.3481 143.255 20.8043C144.579 19.2849 145.216 17.0795 145.216 14.2124V4.72905C145.216 3.74886 144.995 2.9647 144.579 2.40109C144.162 1.83748 143.696 1.46991 143.182 1.34738C142.667 1.22486 142.226 1.10233 141.785 0.979809C141.368 0.857285 141.148 0.734761 141.148 0.563226V0.367188H149.798V0.563226C149.798 0.734761 149.602 0.857285 149.185 0.979809C148.769 1.10233 148.328 1.22486 147.813 1.34738C147.299 1.46991 146.858 1.81298 146.441 2.40109C146.024 2.9647 145.828 3.74886 145.828 4.72905V13.7468Z" fill="white"/>
<path d="M169.941 19.7751L165.726 13.2568L162.639 17.6677C161.365 19.5301 160.727 20.7308 160.727 21.2944C160.727 21.6865 160.875 21.9806 161.169 22.2256C161.463 22.4462 161.781 22.5932 162.124 22.6422C162.467 22.6912 162.786 22.7647 163.08 22.8628C163.374 22.9608 163.521 23.0833 163.521 23.2303V23.4019H154.944V23.2303C154.944 23.0588 155.042 22.9608 155.238 22.8873C155.434 22.8137 155.728 22.7402 156.121 22.6422C156.513 22.5442 156.954 22.3727 157.444 22.1521C157.934 21.9316 158.498 21.5395 159.159 20.9759C159.821 20.4123 160.458 19.6771 161.071 18.7704L165.383 12.6932L160.066 4.43509C159.625 3.74895 159.184 3.16083 158.694 2.67074C158.203 2.18064 157.787 1.83757 157.444 1.61703C157.101 1.39648 156.758 1.22495 156.464 1.10242C156.17 0.9799 155.949 0.881881 155.802 0.783861C155.655 0.685842 155.581 0.612327 155.581 0.538812V0.342773H166.633V0.538812C166.633 0.710347 166.486 0.832871 166.217 0.906386C165.947 1.00441 165.628 1.07792 165.31 1.15143C164.967 1.22495 164.673 1.34747 164.403 1.56802C164.134 1.76406 163.987 2.05811 163.987 2.42569C163.987 2.74425 164.207 3.28336 164.648 4.04301C165.089 4.80266 165.751 5.83186 166.633 7.15513C167.515 8.45389 168.079 9.31156 168.324 9.72814L171.314 5.31726C172.196 3.994 172.661 3.06281 172.661 2.4992C172.661 2.10712 172.539 1.81307 172.294 1.59252C172.049 1.37198 171.755 1.24945 171.461 1.20044C171.167 1.15143 170.873 1.07792 170.627 0.9799C170.382 0.881881 170.26 0.734851 170.26 0.563317V0.367278H178.616V0.563317C178.616 0.734851 178.445 0.906385 178.077 1.0044C177.734 1.12693 177.268 1.24945 176.729 1.39648C176.19 1.54351 175.479 1.9601 174.597 2.64623C173.715 3.33237 172.882 4.26355 172.049 5.41528L168.667 10.2182L175.308 20.3633C175.773 21.0004 176.264 21.515 176.803 21.9071C177.342 22.2991 177.783 22.5197 178.15 22.6177C178.494 22.6912 178.812 22.7892 179.057 22.8628C179.302 22.9608 179.425 23.0588 179.425 23.2058V23.4019H167.858V23.2303C167.858 23.0833 168.005 22.9853 168.275 22.8628C168.545 22.7647 168.863 22.6667 169.206 22.6177C169.549 22.5442 169.868 22.3972 170.137 22.2011C170.407 21.9806 170.554 21.711 170.554 21.368C170.554 20.9024 170.358 20.3633 169.941 19.7506V19.7751Z" fill="white"/>
<path d="M207.116 13.7468C207.116 20.4612 204.102 23.8184 198.074 23.8184C191.433 23.8184 188.101 20.9513 188.101 15.2416V3.62634C188.101 2.89119 187.929 2.32758 187.561 1.9355C187.218 1.54342 186.802 1.29837 186.385 1.22486C185.969 1.15134 185.552 1.05332 185.209 0.979809C184.866 0.88179 184.67 0.759265 184.67 0.612236V0.416197H196.089V0.612236C196.089 0.78377 195.942 0.88179 195.673 0.979809C195.379 1.05332 195.06 1.12684 194.692 1.17585C194.325 1.22486 193.957 1.39639 193.614 1.66595C193.271 1.9355 193.026 2.32758 192.904 2.79317C192.634 3.50381 192.487 4.31247 192.487 5.26816V15.4867C192.487 17.9862 192.977 19.8731 193.933 21.1718C194.888 22.4706 196.653 23.1077 199.201 23.1077C201.431 23.1077 203.22 22.3481 204.543 20.8043C205.867 19.2849 206.504 17.0795 206.504 14.2124V4.72905C206.504 3.74886 206.283 2.9647 205.867 2.40109C205.45 1.83748 204.984 1.46991 204.47 1.34738C203.955 1.22486 203.514 1.10233 203.073 0.979809C202.657 0.857285 202.436 0.734761 202.436 0.563226V0.367188H211.086V0.563226C211.086 0.734761 210.89 0.857285 210.474 0.979809C210.057 1.10233 209.616 1.22486 209.101 1.34738C208.587 1.46991 208.146 1.81298 207.729 2.40109C207.312 2.9647 207.116 3.74886 207.116 4.72905V13.7468Z" fill="white"/>
<path d="M225.372 12.4727H224.588V19.7996C224.588 20.6573 224.784 21.3189 225.152 21.7845C225.519 22.2501 225.936 22.5442 226.377 22.6177C226.818 22.6912 227.234 22.7892 227.602 22.8628C227.97 22.9608 228.166 23.0833 228.166 23.2303V23.4019H216.673V23.2303C216.673 23.0588 216.844 22.9118 217.212 22.8137C217.58 22.7157 217.972 22.6422 218.437 22.5442C218.878 22.4462 219.295 22.1276 219.662 21.5885C220.03 21.0494 220.202 20.3142 220.202 19.3341V3.62643C220.202 2.89128 220.03 2.32767 219.662 1.91109C219.295 1.4945 218.903 1.24945 218.462 1.20044C218.021 1.15143 217.629 1.05341 217.261 0.9799C216.893 0.906386 216.722 0.759356 216.722 0.587822V0.342773H226.695C229.783 0.342773 232.184 0.832871 233.924 1.81307C235.64 2.79326 236.522 4.31256 236.522 6.37097C236.522 8.15983 235.689 9.63012 234.047 10.8064C232.38 11.9826 230.053 12.5462 227.038 12.5462C226.94 12.5462 226.769 12.5462 226.524 12.5462C226.279 12.5462 226.107 12.5462 226.034 12.5462C226.989 13.6979 228.803 14.237 231.449 14.188L235.885 20.4613C236.522 21.3435 237.208 21.9806 237.943 22.3236C238.678 22.6667 239.242 22.8873 239.634 22.9363C240.026 22.9853 240.222 23.1323 240.222 23.3283V23.4754H233.189L225.397 12.4972L225.372 12.4727ZM224.588 0.906386V11.9336H225.985C227.823 11.9336 229.244 11.419 230.298 10.4143C231.327 9.38507 231.866 8.08631 231.866 6.44449C231.866 4.80266 231.327 3.40588 230.249 2.42569C229.17 1.42099 227.774 0.93089 226.058 0.93089H224.612L224.588 0.906386Z" fill="white"/>
<path d="M256.272 12.301H256.37L259.801 5.58663C260.462 4.33689 260.805 3.4057 260.805 2.81758C260.805 2.22947 260.56 1.78838 260.07 1.54333C259.58 1.27378 259.09 1.10224 258.6 1.00422C258.11 0.906204 257.865 0.78368 257.865 0.63665V0.391602H266.001V0.63665C266.001 0.808184 265.829 0.930709 265.51 1.02873C265.192 1.12675 264.8 1.22477 264.334 1.34729C263.869 1.44531 263.305 1.78838 262.692 2.35199C262.08 2.9156 261.492 3.67525 261.002 4.63094C259.752 6.98341 258.281 9.77697 256.615 13.0361V19.8485C256.615 20.7061 256.811 21.3678 257.179 21.8334C257.546 22.299 257.963 22.593 258.404 22.6665C258.845 22.74 259.262 22.8381 259.629 22.9116C259.997 23.0096 260.193 23.1321 260.193 23.2792V23.4507H248.749V23.2792C248.749 23.1076 248.921 22.9851 249.288 22.9116C249.656 22.8136 250.048 22.74 250.464 22.642C250.881 22.544 251.273 22.2745 251.641 21.7844C252.008 21.2943 252.18 20.6326 252.18 19.7995V13.6732L246.446 3.47922C246.078 2.84209 245.686 2.32749 245.22 1.95991C244.779 1.59234 244.387 1.34729 244.069 1.24927C243.75 1.15125 243.481 1.07774 243.26 0.979719C243.039 0.881699 242.941 0.759175 242.941 0.612145V0.416106H253.601V0.661155C253.601 0.808184 253.454 0.906204 253.16 1.00422C252.866 1.10224 252.572 1.17576 252.229 1.22477C251.886 1.27378 251.592 1.42081 251.298 1.64135C251.004 1.86189 250.856 2.13145 250.856 2.47452C250.856 2.76857 250.955 3.06263 251.126 3.35669L256.199 12.35L256.272 12.301Z" fill="white"/>
</svg>
